<svg xmlns="http://www.w3.org/2000/svg" xmlns:xlink="http://www.w3.org/1999/xlink" width="90" zoomAndPan="magnify" viewBox="0 0 67.5 60" height="80" preserveAspectRatio="xMidYMid meet" version="1.0"><defs><g/><clipPath id="13f0635874"><path d="M 1.648438 26.261719 L 65.398438 26.261719 L 65.398438 35.261719 L 1.648438 35.261719 Z M 1.648438 26.261719 " clip-rule="nonzero"/></clipPath></defs><g fill="#000000" fill-opacity="1"><g transform="translate(3.688, 48.765969)"><g><path d="M 1.328125 -44.332031 L 1.328125 -43.890625 C 5.140625 -43.890625 5.410156 -40.742188 5.410156 -32.007812 L 5.410156 -12.324219 C 5.410156 -3.589844 5.140625 -0.441406 1.328125 -0.441406 L 1.328125 0 L 13.300781 0 L 13.300781 -0.441406 C 9.488281 -0.441406 5.851562 -3.636719 5.851562 -16.535156 L 5.851562 -22.167969 L 5.894531 -41.183594 C 12.632812 -26.734375 16.625 -18.132812 23.585938 -3.234375 L 23.984375 -3.234375 C 29.4375 -17.867188 33.914062 -30.058594 38.703125 -42.871094 L 38.703125 -12.324219 C 38.703125 -3.589844 38.4375 -0.441406 34.625 -0.441406 L 34.625 0 L 46.59375 0 L 46.59375 -0.441406 C 42.78125 -0.441406 42.515625 -3.589844 42.515625 -12.324219 L 42.515625 -32.007812 C 42.515625 -40.742188 42.78125 -43.890625 46.59375 -43.890625 L 46.59375 -44.332031 L 38.789062 -44.332031 L 25.492188 -8.601562 L 8.46875 -44.332031 Z M 1.328125 -44.332031 "/></g></g></g><g fill="#000000" fill-opacity="1"><g transform="translate(51.606008, 48.765969)"><g><path d="M -2.214844 9.132812 C -1.683594 9.222656 -1.375 9.308594 -0.664062 9.308594 C 5.054688 9.308594 9.089844 3.28125 9.089844 -3.058594 L 9.089844 -32.007812 C 9.089844 -40.742188 9.355469 -43.890625 13.167969 -43.890625 L 13.167969 -44.332031 L 1.195312 -44.332031 L 1.195312 -43.890625 C 5.007812 -43.890625 5.277344 -40.742188 5.277344 -32.007812 L 5.277344 -2.96875 C 5.277344 3.769531 2.925781 8.734375 -1.417969 8.734375 C -1.683594 8.734375 -2.128906 8.6875 -2.128906 8.6875 Z M -2.214844 9.132812 "/></g></g></g><g clip-path="url(#13f0635874)"><path fill="#f1f0f0" d="M 1.648438 26.261719 L 65.398438 26.261719 L 65.398438 35.261719 L 1.648438 35.261719 L 1.648438 26.261719 " fill-opacity="1" fill-rule="nonzero"/></g><g fill="#000000" fill-opacity="1"><g transform="translate(0.683483, 32.355805)"><g/></g></g><g fill="#000000" fill-opacity="1"><g transform="translate(3.670466, 32.355805)"><g><path d="M 5.578125 -4.65625 L 5.578125 0 L 5.109375 0 L 5.109375 -3.71875 L 3.28125 -0.59375 L 3.0625 -0.59375 L 1.234375 -3.703125 L 1.234375 0 L 0.75 0 L 0.75 -4.65625 L 1.15625 -4.65625 L 3.1875 -1.203125 L 5.1875 -4.65625 Z M 5.578125 -4.65625 "/></g></g></g><g fill="#000000" fill-opacity="1"><g transform="translate(11.263423, 32.355805)"><g><path d="M 3.671875 -1.234375 L 1.078125 -1.234375 L 0.53125 0 L 0.015625 0 L 2.140625 -4.65625 L 2.625 -4.65625 L 4.75 0 L 4.234375 0 Z M 3.5 -1.640625 L 2.375 -4.140625 L 1.265625 -1.640625 Z M 3.5 -1.640625 "/></g></g></g><g fill="#000000" fill-opacity="1"><g transform="translate(17.276726, 32.355805)"><g><path d="M 3.9375 0 L 2.875 -1.5 C 2.75 -1.476562 2.625 -1.46875 2.5 -1.46875 L 1.25 -1.46875 L 1.25 0 L 0.75 0 L 0.75 -4.65625 L 2.5 -4.65625 C 3.09375 -4.65625 3.554688 -4.507812 3.890625 -4.21875 C 4.222656 -3.9375 4.390625 -3.550781 4.390625 -3.0625 C 4.390625 -2.695312 4.296875 -2.390625 4.109375 -2.140625 C 3.929688 -1.890625 3.671875 -1.707031 3.328125 -1.59375 L 4.46875 0 Z M 2.484375 -1.890625 C 2.941406 -1.890625 3.289062 -1.988281 3.53125 -2.1875 C 3.78125 -2.394531 3.90625 -2.6875 3.90625 -3.0625 C 3.90625 -3.4375 3.78125 -3.722656 3.53125 -3.921875 C 3.289062 -4.117188 2.941406 -4.21875 2.484375 -4.21875 L 1.25 -4.21875 L 1.25 -1.890625 Z M 2.484375 -1.890625 "/></g></g></g><g fill="#000000" fill-opacity="1"><g transform="translate(23.329848, 32.355805)"><g><path d="M 2.78125 0.046875 C 2.3125 0.046875 1.890625 -0.0546875 1.515625 -0.265625 C 1.148438 -0.472656 0.863281 -0.753906 0.65625 -1.109375 C 0.445312 -1.472656 0.34375 -1.878906 0.34375 -2.328125 C 0.34375 -2.773438 0.445312 -3.175781 0.65625 -3.53125 C 0.863281 -3.894531 1.15625 -4.175781 1.53125 -4.375 C 1.90625 -4.582031 2.320312 -4.6875 2.78125 -4.6875 C 3.125 -4.6875 3.441406 -4.628906 3.734375 -4.515625 C 4.023438 -4.398438 4.273438 -4.234375 4.484375 -4.015625 L 4.171875 -3.703125 C 3.804688 -4.066406 3.347656 -4.25 2.796875 -4.25 C 2.429688 -4.25 2.097656 -4.164062 1.796875 -4 C 1.492188 -3.832031 1.253906 -3.601562 1.078125 -3.3125 C 0.910156 -3.019531 0.828125 -2.691406 0.828125 -2.328125 C 0.828125 -1.960938 0.910156 -1.632812 1.078125 -1.34375 C 1.253906 -1.050781 1.492188 -0.820312 1.796875 -0.65625 C 2.097656 -0.488281 2.429688 -0.40625 2.796875 -0.40625 C 3.347656 -0.40625 3.804688 -0.585938 4.171875 -0.953125 L 4.484375 -0.640625 C 4.273438 -0.421875 4.023438 -0.25 3.734375 -0.125 C 3.441406 -0.0078125 3.125 0.046875 2.78125 0.046875 Z M 2.78125 0.046875 "/></g></g></g><g fill="#000000" fill-opacity="1"><g transform="translate(29.356426, 32.355805)"><g/></g></g><g fill="#000000" fill-opacity="1"><g transform="translate(32.349799, 32.355805)"><g><path d="M 1.25 0.046875 C 0.988281 0.046875 0.742188 -0.0078125 0.515625 -0.125 C 0.285156 -0.25 0.101562 -0.414062 -0.03125 -0.625 L 0.265625 -0.953125 C 0.515625 -0.578125 0.847656 -0.390625 1.265625 -0.390625 C 1.835938 -0.390625 2.125 -0.726562 2.125 -1.40625 L 2.125 -4.21875 L 0.421875 -4.21875 L 0.421875 -4.65625 L 2.609375 -4.65625 L 2.609375 -1.421875 C 2.609375 -0.941406 2.492188 -0.578125 2.265625 -0.328125 C 2.035156 -0.078125 1.695312 0.046875 1.25 0.046875 Z M 1.25 0.046875 "/></g></g></g><g fill="#000000" fill-opacity="1"><g transform="translate(36.92946, 32.355805)"><g><path d="M 3.671875 -1.234375 L 1.078125 -1.234375 L 0.53125 0 L 0.015625 0 L 2.140625 -4.65625 L 2.625 -4.65625 L 4.75 0 L 4.234375 0 Z M 3.5 -1.640625 L 2.375 -4.140625 L 1.265625 -1.640625 Z M 3.5 -1.640625 "/></g></g></g><g fill="#000000" fill-opacity="1"><g transform="translate(42.942762, 32.355805)"><g><path d="M 4.640625 -4.65625 L 4.640625 0 L 4.234375 0 L 1.25 -3.765625 L 1.25 0 L 0.75 0 L 0.75 -4.65625 L 1.15625 -4.65625 L 4.15625 -0.875 L 4.15625 -4.65625 Z M 4.640625 -4.65625 "/></g></g></g><g fill="#000000" fill-opacity="1"><g transform="translate(49.593235, 32.355805)"><g><path d="M 4.640625 -4.65625 L 4.640625 0 L 4.234375 0 L 1.25 -3.765625 L 1.25 0 L 0.75 0 L 0.75 -4.65625 L 1.15625 -4.65625 L 4.15625 -0.875 L 4.15625 -4.65625 Z M 4.640625 -4.65625 "/></g></g></g><g fill="#000000" fill-opacity="1"><g transform="translate(56.243709, 32.355805)"><g><path d="M 0.75 -4.65625 L 1.25 -4.65625 L 1.25 0 L 0.75 0 Z M 0.75 -4.65625 "/></g></g></g><g fill="#000000" fill-opacity="1"><g transform="translate(59.502566, 32.355805)"><g><path d="M 2.03125 0.046875 C 1.6875 0.046875 1.359375 -0.0078125 1.046875 -0.125 C 0.734375 -0.238281 0.488281 -0.382812 0.3125 -0.5625 L 0.5 -0.9375 C 0.664062 -0.769531 0.890625 -0.632812 1.171875 -0.53125 C 1.453125 -0.425781 1.738281 -0.375 2.03125 -0.375 C 2.445312 -0.375 2.757812 -0.453125 2.96875 -0.609375 C 3.175781 -0.765625 3.28125 -0.960938 3.28125 -1.203125 C 3.28125 -1.390625 3.222656 -1.535156 3.109375 -1.640625 C 3.003906 -1.753906 2.867188 -1.84375 2.703125 -1.90625 C 2.535156 -1.96875 2.304688 -2.03125 2.015625 -2.09375 C 1.671875 -2.1875 1.394531 -2.273438 1.1875 -2.359375 C 0.976562 -2.441406 0.796875 -2.566406 0.640625 -2.734375 C 0.492188 -2.898438 0.421875 -3.125 0.421875 -3.40625 C 0.421875 -3.644531 0.484375 -3.859375 0.609375 -4.046875 C 0.734375 -4.242188 0.921875 -4.398438 1.171875 -4.515625 C 1.429688 -4.628906 1.753906 -4.6875 2.140625 -4.6875 C 2.398438 -4.6875 2.65625 -4.648438 2.90625 -4.578125 C 3.164062 -4.503906 3.390625 -4.40625 3.578125 -4.28125 L 3.40625 -3.890625 C 3.21875 -4.015625 3.007812 -4.109375 2.78125 -4.171875 C 2.5625 -4.234375 2.347656 -4.265625 2.140625 -4.265625 C 1.734375 -4.265625 1.425781 -4.1875 1.21875 -4.03125 C 1.007812 -3.875 0.90625 -3.671875 0.90625 -3.421875 C 0.90625 -3.234375 0.960938 -3.082031 1.078125 -2.96875 C 1.191406 -2.863281 1.332031 -2.78125 1.5 -2.71875 C 1.675781 -2.65625 1.90625 -2.59375 2.1875 -2.53125 C 2.53125 -2.4375 2.804688 -2.347656 3.015625 -2.265625 C 3.222656 -2.191406 3.398438 -2.070312 3.546875 -1.90625 C 3.691406 -1.738281 3.765625 -1.515625 3.765625 -1.234375 C 3.765625 -0.992188 3.703125 -0.773438 3.578125 -0.578125 C 3.453125 -0.390625 3.257812 -0.238281 3 -0.125 C 2.738281 -0.0078125 2.414062 0.046875 2.03125 0.046875 Z M 2.03125 0.046875 "/></g></g></g></svg>